# xmcd CD database file
#
# Track frame offsets:
#	300
#	30130
#	50420
#	81915
#	101682
#	119947
#	137260
#
# Disc length: 2242 seconds
#
# Revision: 2
# Processed by: cddbd v1.5.2PL0 Copyright (c) Steve Scherf et al.
# Submitted via: CDex 1.70beta2
#
DISCID=5608be07
DTITLE=Steve Gadd - The Gadd Gang
DYEAR=1987
DGENRE=Jazz
TTITLE0=Watching the River Flow
TTITLE1=Strength
TTITLE2=Way Back Home
TTITLE3=Morning Love
TTITLE4=Duke's Lullaby
TTITLE5=Everything You Do
TTITLE6=Honky Tonk - I Can't Stop Loving You
EXTD=The Gadd Gang:\nSteve Gadd - drums, congas, percussion, vocal\nCornell Dupree - guitar\nEddie Gomez - bass\nRichard Tee - Steinway piano, Rhodes piano, \n  Hammond B-3 organ, DX-7, vocal,\n  arrangement on (4]\n\nRonnie Cuber - baritone sax (1,3,7)\
EXTD=nJon Faddis, Lew Soloff - trumpets (7]\nBarry Rogers, David Taylor - trombones (7]\nMichael Brecker, George Young - tenor saxes (7) YEAR: 1987
EXTT0=
EXTT1=
EXTT2=
EXTT3=
EXTT4=
EXTT5=
EXTT6=
PLAYORDER=
